M48
METRIC,LZ,000.000
;FILE_FORMAT=3:3
;TYPE=PLATED
;Layer: PTH_Through
;EasyEDA v6.5.46, 2025-05-24 16:21:16
;ef174af1d8114eec8ec5a0e0ba4c07ea,10
;Gerber Generator version 0.2
;Holesize 1 = 0.701 mm
T01C0.701
;Holesize 2 = 0.900 mm
T02C0.900
;Holesize 3 = 0.966 mm
T03C0.966
;Holesize 4 = 1.200 mm
T04C1.200
;Holesize 5 = 1.301 mm
T05C1.301
%
G05
G90
T01
X059817Y068315
X059817Y066813
X033401Y056526
X033401Y058028
X062346Y053086
X060844Y053086
X033401Y041286
X033401Y042788
X059055Y041032
X059055Y042534
X033274Y067321
X033274Y068823
X049403Y042672
X049403Y041402
X049403Y040132
T02
X069342Y064389
X069342Y072009
X071120Y052451
X071120Y060071
X068453Y036576
X068453Y044196
T03
X076581Y070485
X076581Y067945
X078613Y054864
X078613Y052324
X077724Y040640
X077724Y038100
T04
X048646Y068580
X048636Y066040
X048646Y071120
X049535Y054229
X049525Y051689
X049535Y056769
T05
X013589Y056932
X013589Y061940
X090932Y067981
X090932Y072989
X091440Y055027
X091440Y060035
X090551Y040168
X090551Y045176
M30
