G04 Layer: TopLayer*
G04 EasyEDA v6.5.46, 2025-05-24 16:21:16*
G04 ef174af1d8114eec8ec5a0e0ba4c07ea,10*
G04 Gerber Generator version 0.2*
G04 Scale: 100 percent, Rotated: No, Reflected: No *
G04 Dimensions in millimeters *
G04 leading zeros omitted , absolute positions ,4 integer and 5 decimal *
%FSLAX45Y45*%
%MOMM*%

%ADD10C,1.0000*%
%ADD11C,1.6510*%
%ADD12C,2.0000*%
%ADD13C,1.8796*%
%ADD14O,2.5999948X1.7999964*%
%ADD15R,2.6000X1.8000*%
%ADD16O,1.5999968X0.8999982*%
%ADD17R,1.6000X0.9000*%

%LPD*%
D10*
G01*
X5981710Y6831467D03*
G01*
X5981710Y6681353D03*
G01*
X3340089Y5652632D03*
G01*
X3340089Y5802746D03*
G01*
X6234567Y5308589D03*
G01*
X6084453Y5308589D03*
G01*
X3340089Y4128632D03*
G01*
X3340089Y4278746D03*
G01*
X5905489Y4103232D03*
G01*
X5905489Y4253346D03*
G01*
X3327389Y6732132D03*
G01*
X3327389Y6882246D03*
D11*
G01*
X7658100Y7048500D03*
G01*
X7658100Y6794500D03*
G01*
X7861300Y5486400D03*
G01*
X7861300Y5232400D03*
G01*
X7772400Y4064000D03*
G01*
X7772400Y3810000D03*
D12*
G01*
X1358900Y5693155D03*
G01*
X1358900Y6194044D03*
G01*
X9093200Y6798055D03*
G01*
X9093200Y7298944D03*
G01*
X9144000Y5502655D03*
G01*
X9144000Y6003544D03*
G01*
X9055100Y4016755D03*
G01*
X9055100Y4517644D03*
D13*
G01*
X6934200Y6438900D03*
G01*
X6934200Y7200900D03*
G01*
X7112000Y5245100D03*
G01*
X7112000Y6007100D03*
G01*
X6845300Y3657600D03*
G01*
X6845300Y4419600D03*
D14*
G01*
X4864595Y6858012D03*
G01*
X4863604Y6603987D03*
D15*
G01*
X4864595Y7112012D03*
D14*
G01*
X4953495Y5422912D03*
G01*
X4952504Y5168887D03*
D15*
G01*
X4953495Y5676912D03*
D16*
G01*
X4940300Y4267200D03*
G01*
X4940300Y4140200D03*
D17*
G01*
X4940300Y4013200D03*
M02*
